<?xml version="1.0" encoding="UTF-8"?>
<svg id="Layer_1" xmlns="http://www.w3.org/2000/svg" version="1.1" viewBox="0 0 160 160">
  <!-- Generator: Adobe Illustrator 30.0.0, SVG Export Plug-In . SVG Version: 2.1.1 Build 123)  -->
  <defs>
    <style>
      .st0 {
        fill: #3195ce;
      }
    </style>
  </defs>
  <path class="st0" d="M109.16,50.22c1.37,3.27,1.85,6.09,2.03,8.07.09.98.87,10.62-2.94,12.28-.65.28-1.65.43-1.99,0-.49-.61.63-2.08,1.48-3.8,1.13-2.27,1.38-4.13,1.77-7.09.28-2.14.46-5.42-.34-9.47Z"/>
  <path class="st0" d="M96.93,77.75c.48.38,3.87-2.31,6.24-6.18,2.51-4.1,2.97-8.03,3.21-10.31.18-1.75.65-7.75-2.18-14.65-2.05-4.99-4.87-8.11-5.63-8.93-.64-.68-3.63-3.83-9.2-6.57-8.67-4.27-17.96-4.8-18.26-3.73-.26.92,6.24,2.95,5.95,4.12-.28,1.11-6.32-.31-11.97.05-14.97.94-26.43,14.23-25.79,15.21.19.3,4.52-1.68,13.18-5.65,4.38-2,5.86-2.76,8.71-3.73,2.78-.94,6.26-2.11,10.17-2.39,9.69-.69,17.13,4.43,18.04,5.08,7.14,5.07,9.62,11.96,10.58,14.73.96,2.8,2.59,7.52,1.39,13.09-1.26,5.89-4.96,9.45-4.44,9.87Z"/>
  <path class="st0" d="M98.22,60.49c.59-.1,1-4.14-.03-7.8-2.42-8.63-12.14-12.73-14.06-13.54-11.37-4.79-22.4-.91-25.13.1-13.96,5.15-23.39,18.27-26.39,30.86-5.27,22.15,8.92,44.53,9.51,44.32.31-.11-6.03-8.62-6.26-20.71-.15-7.64,1.95-13.77,3.64-18.69,1.83-5.35,3.56-10.63,7.9-16.34,2.3-3.03,5.59-7.25,11.5-10.35,5.44-2.85,10.32-3.28,13.17-3.51,4.26-.34,9.33-.74,14.84,2,1.58.79,5.54,2.82,8.27,7.11,2.17,3.42,2.51,6.64,3.05,6.55Z"/>
  <path class="st0" d="M109.31,123.21c.38,1.04-5.67,4.82-11.82,7.09-16.47,6.06-31.69.53-32.75.13-3.91-1.48-12.31-4.67-18.49-13.17-6.85-9.43-6.83-19.68-6.81-26.63.01-5.34.03-13.06,4.11-21.14,7.58-15.02,24.45-21.91,25.07-21.06.17.23-5.16,2.65-9.86,9.09-4.76,6.52-5.99,13.2-6.64,16.96-.84,4.82-2.35,14.04,1.94,24.47,1.03,2.5,4.01,9.5,11.13,15.22,9.02,7.24,19.5,8.22,25.52,8.79,6.8.64,11.07.46,11.07.46,4.79-.2,7.31-.83,7.54-.2Z"/>
  <path class="st0" d="M128.44,89.85c.83.44-1.6,7.16-5.07,13.73-2.89,5.46-4.58,8.67-7.13,11.2-8.86,8.8-25.83,7.23-36.45,3.19-3.64-1.39-15.09-6.32-22.01-18.88-1.61-2.93-6.62-12.33-4.7-24.53.63-4.01,2.35-14.98,11.87-21.21,1.79-1.17,9.65-6.31,18.6-3.29,1.54.52,7.35,2.5,10.45,8.59,3.7,7.29.48,14.36.06,15.24-2.13,4.45-5.8,8.03-6.8,7.48-1.1-.61,2.29-5.49,1.32-11.52-.59-3.67-2.63-9.55-6.7-10.64-5.37-1.43-12.44,5.91-14.63,13.09-1.91,6.25.07,11.77,1.25,15.06.8,2.24,3.27,8.83,9.96,13.84,8.15,6.1,17.18,5.83,22.56,5.67,3.86-.12,7.81-.24,12.29-2.25,10.45-4.7,14.1-15.34,15.14-14.79Z"/>
  <path class="st0" d="M128.37,85.63c.26.18-2.69,7.57-10.13,12.77-1.14.8-9.54,6.49-20.72,5.3-13.09-1.39-22.14-11.38-22.16-11.36-.01.02,3.95,3.52,10.72,6.5,4.04,1.78,8.25,3.63,13.98,3.71,7.25.1,12.58-2.68,14.6-3.76,9.41-5.05,13.42-13.37,13.7-13.17Z"/>
  <rect class="st0" x="75.99" y="85.53" width="1.75" height="7.37" transform="translate(-.34 .3) rotate(-.22)"/>
  <rect class="st0" x="77.74" y="83.22" width="3.13" height="11.26" transform="translate(-.34 .31) rotate(-.22)"/>
  <rect class="st0" x="80.28" y="93.89" width="1.78" height="2.49" transform="translate(-.37 .31) rotate(-.22)"/>
  <rect class="st0" x="81.83" y="84.47" width="2.65" height="13.07" transform="translate(-.35 .32) rotate(-.22)"/>
  <rect class="st0" x="84.5" y="95.36" width="2.21" height="3.55" transform="translate(-.37 .33) rotate(-.22)"/>
  <rect class="st0" x="86.71" y="91.09" width="4.12" height="9.13" transform="translate(-.37 .34) rotate(-.22)"/>
  <rect class="st0" x="89.95" y="82.48" width="5.34" height="18.87" transform="translate(-.35 .36) rotate(-.22)"/>
  <rect class="st0" x="95.3" y="89.36" width="4.43" height="12.51" transform="translate(-.37 .38) rotate(-.22)"/>
  <rect class="st0" x="99.73" y="91.34" width="2.73" height="10.67" transform="translate(-.37 .39) rotate(-.22)"/>
  <rect class="st0" x="102.25" y="89.93" width="3.95" height="11.65" transform="translate(-.37 .4) rotate(-.22)"/>
  <rect class="st0" x="105.93" y="87.24" width="5.04" height="13.81" transform="translate(-.36 .42) rotate(-.22)"/>
  <rect class="st0" x="110.02" y="90.33" width="2.69" height="9.49" transform="translate(-.37 .43) rotate(-.22)"/>
  <rect class="st0" x="111.89" y="95.72" width="3.95" height="2.99" transform="translate(-.37 .44) rotate(-.22)"/>
  <rect class="st0" x="114.9" y="82.08" width="3.13" height="15.13" transform="translate(-.34 .45) rotate(-.22)"/>
  <rect class="st0" x="115.95" y="92.56" width="5.18" height="2.9" transform="translate(-28.09 56.72) rotate(-24.15)"/>
  <rect class="st0" x="119.37" y="83.71" width="3.82" height="9.4" transform="translate(-.34 .47) rotate(-.22)"/>
  <rect class="st0" x="77.55" y="92.6" width="1" height="1.52" transform="translate(-.36 .3) rotate(-.22)"/>
  <rect class="st0" x="76.54" y="92.63" width="2.02" height="1.13" transform="translate(119.05 -20.73) rotate(59.78)"/>
  <rect class="st0" x="76.15" y="92.54" width="1.71" height="1.08" transform="translate(78.74 -27.71) rotate(40.42)"/>
  <rect class="st0" x="78.15" y="94.06" width="2.45" height=".84" transform="translate(-.36 .31) rotate(-.22)"/>
  <rect class="st0" x="79.09" y="94.88" width="1.47" height=".5" transform="translate(-.37 .31) rotate(-.22)"/>
  <rect class="st0" x="81.7" y="96.38" width=".4" height=".36" transform="translate(-.37 .32) rotate(-.22)"/>
  <rect class="st0" x="78.72" y="94.81" width=".53" height=".33" transform="translate(-.37 .31) rotate(-.22)"/>
  <rect class="st0" x="79.51" y="95.1" width="1.06" height=".75" transform="translate(-.37 .31) rotate(-.22)"/>
  <rect class="st0" x="81.22" y="95.85" width=".69" height=".93" transform="translate(-.37 .32) rotate(-.22)"/>
  <rect class="st0" x="83.33" y="97.14" width="1.49" height="1.06" transform="translate(-.38 .32) rotate(-.22)"/>
  <rect class="st0" x="85.98" y="98.72" width=".97" height=".51" transform="translate(-.38 .33) rotate(-.22)"/>
  <rect class="st0" x="89.27" y="100.02" width=".85" height=".47" transform="translate(-.39 .35) rotate(-.22)"/>
  <rect class="st0" x="92.43" y="101.16" width="4.7" height="1.06" transform="translate(-.39 .37) rotate(-.22)"/>
  <rect class="st0" x="95.62" y="100.83" width="11.84" height="2" transform="translate(-.39 .39) rotate(-.22)"/>
  <rect class="st0" x="106.37" y="100.36" width="3.36" height="1.63" transform="translate(-.39 .42) rotate(-.22)"/>
  <rect class="st0" x="110.82" y="98.43" width="4.66" height="1.08" transform="translate(-.38 .44) rotate(-.22)"/>
  <rect class="st0" x="110.03" y="99.51" width="3.84" height="1.29" transform="translate(-.39 .43) rotate(-.22)"/>
  <rect class="st0" x="115.23" y="97.21" width="2.54" height=".97" transform="translate(-.38 .45) rotate(-.22)"/>
  <rect class="st0" x="118.04" y="91.93" width="4.32" height="2.8" transform="translate(-.36 .46) rotate(-.22)"/>
  <rect class="st0" x="117.61" y="94.1" width="3.68" height=".95" transform="translate(-.36 .46) rotate(-.22)"/>
  <rect class="st0" x="116.32" y="94.58" width="3.89" height="2.2" transform="translate(-.37 .46) rotate(-.22)"/>
</svg>